<?xml version="1.0" standalone="no"?><!DOCTYPE svg PUBLIC "-//W3C//DTD SVG 1.1//EN" "http://www.w3.org/Graphics/SVG/1.1/DTD/svg11.dtd"><svg t="1750489926420" class="icon" viewBox="0 0 4505 1024" version="1.1" xmlns="http://www.w3.org/2000/svg" p-id="1264" width="281.5625" height="64" xmlns:xlink="http://www.w3.org/1999/xlink"><path d="M748.032 0l-33.024 61.2864h285.0816L990.6176 148.48h-144.896l36.5568 95.4368h-108.3904L739.7376 148.48h-75.3664l-43.6224 68.352H494.7456c39.2704-55.808 83.6096-128.0512 133.12-216.832h120.1152z m-215.6032 61.2864l-15.36 87.1936H379.392l34.0992 83.6608h-109.568L273.3568 148.48h-62.464A2503.5776 2503.5776 0 0 1 133.12 260.4032H0C77.7216 158.3104 135.0656 72.704 171.9808 3.584h126.0544l-16.4864 30.6176-17.7152 27.136H532.48zM431.104 229.7344h123.6992l14.1312 55.4496h280.3712c36.096 0 62.6176 6.2464 79.5136 18.8416 16.896 12.544 25.2928 31.7952 25.2928 57.7536 0 8.6016-0.3584 15.3088-1.1776 19.968L940.032 492.544h-111.872l11.776-113.152H142.5408l-15.36 114.3296H17.7152l14.1312-114.2784c3.9424-33.792 13.7728-57.9584 29.44-72.4992 15.7184-14.4896 39.68-21.76 71.8848-21.76h309.76l-11.776-55.3984z m-288.5632 296.96c3.8912-32.9728 14.336-56.1152 31.232-69.4784 16.896-13.3632 43.3664-20.0192 79.4624-20.0192h462.9504c32.2048 0 55.7568 5.632 70.656 17.0496 14.9504 11.4176 22.3744 30.0544 22.3744 55.9616 0 9.472-0.3584 16.5376-1.1776 21.248l-17.664 153.1904H235.5712l-7.0656 60.0576h500.6336c32.2048 0 55.9616 5.9392 71.2704 17.7152 15.3088 11.776 22.9888 31.3856 22.9888 58.88 0 9.472-0.4096 16.896-1.1776 22.4256l-20.0704 164.9664H84.8384l57.7024-481.9456z m551.2704 0H254.4128l-8.192 69.5808h439.296l8.2944-69.5296z m3.5328 390.0928l8.192-82.4832H217.9584l-10.5984 82.432h489.984z m1434.7264-13.0048l-11.776 101.376H1451.2128l11.776-101.376h268.5952l15.3088-129.5872H1536l11.776-98.9696h209.664l11.776-101.376h-223.7952l54.1696-450.0992c4.7104-25.9584 13.9264-46.3872 27.648-61.2864 13.7728-14.9504 32.768-22.3744 57.1392-22.3744h375.808c29.7984 0 52.992 9.984 69.4784 30.0032 16.4864 20.0704 22.784 46.9504 18.8416 80.7424l-48.2816 423.0144h-222.6688l-11.776 101.376h236.8l-11.776 98.9696h-235.6224l-15.3088 129.5872h292.1472z m-638.464-60.0576c-67.5328 18.8416-130.7136 35.328-189.6448 49.4592a3557.376 3557.376 0 0 1-189.6448 38.912l14.1312-110.7968 61.2864-11.776 58.88-10.5984 32.9728-293.376h-121.344l11.776-101.376h121.344l27.136-232.1408h-133.12l11.776-102.5024h355.7376l-11.776 102.5024h-111.9232l-27.136 232.1408h114.2784l-11.776 101.376h-114.2272l-31.7952 267.4688a3324.3136 3324.3136 0 0 0 144.896-37.7344l-11.776 108.4416z m325.12-704.6656h-117.76l-14.1824 120.1664h117.8112l14.1312-120.1664z m210.8416 120.1664l14.1312-120.1664H1927.168l-14.1312 120.1664h116.5824zM1794.048 353.4848h-117.76l-14.1824 121.3952h118.9888l12.9536-121.344z m108.3904 0l-13.0048 121.3952h116.6336l12.9536-121.344h-116.5824z m1427.6096-47.104l-12.9536 109.568H2559.6416l-24.7296 192.1024c-12.544 88.7808-27.4944 165.9392-44.7488 231.5264A848.7936 848.7936 0 0 1 2418.2784 1024l-111.872-34.1504a1289.1648 1289.1648 0 0 0 73.0112-181.504c16.4864-56.5248 29.44-126.0544 38.912-208.5376l51.8144-419.5328c3.8912-37.6832 12.3392-64.2048 25.2928-79.5136 12.9536-15.36 35.5328-23.7568 67.7376-25.344 40.8576-2.3552 69.12-4.3008 84.8384-5.888l123.648-8.2432c94.208-6.2976 191.6416-13.7728 292.1472-22.4256l224.9728-19.968L3271.168 133.12c-38.4512 3.8912-102.4512 9.0112-192 15.3088l-273.2544 20.0192-123.6992 9.4208-93.0816 5.888-15.3088 122.5728h756.224z m-129.536 689.3568H2579.6608l42.4448-342.9376c3.8912-42.3936 15.872-72.6528 35.8912-90.7264 20.0192-18.0736 50.0736-27.136 90.112-27.136h379.2896c36.1472 0 63.8464 9.472 83.0464 28.3136 19.2512 18.8416 28.8768 45.568 28.8768 80.128 0 10.24-0.4096 18.0736-1.1776 23.552l-37.6832 328.8064z m-486.5024-106.0864h380.4672l25.9072-249.8048h-379.2896l-27.0848 249.856z m1632.6144-473.7024c-222.208 16.4864-449.536 26.7264-681.984 30.6688-27.4944 0-48.896-5.12-64.256-15.36a48.3328 48.3328 0 0 1-22.9376-42.3936c0-23.552 13.7216-47.9232 41.216-73.0624C3743.488 197.1712 3844.4032 91.904 3921.408 0h153.088a2810.368 2810.368 0 0 1-315.648 335.872c145.2544-0.8192 323.9424-9.472 535.9616-25.9584l-100.1472-206.2336h124.8768L4505.6 470.1696h-131.9424l-27.0848-54.2208z m11.776 586.8544H3583.2832l43.5712-347.648c7.8848-71.4752 46.336-107.2128 115.456-107.2128h563.0464c62.8224 0 94.208 28.2624 94.208 84.8384 0 9.4208-0.3584 16.4864-1.1776 21.1968l-40.0384 348.8256zM3717.632 894.3616h527.7184l29.44-242.688H3748.1984l-30.6176 242.688z" p-id="1265" fill="#1890ff"></path></svg>